<svg xmlns="http://www.w3.org/2000/svg" width="17.005" height="17.001" viewBox="0 0 17.005 17.001">
  <path id="Icon_awesome-instagram" data-name="Icon awesome-instagram" d="M8.5,6.379a4.359,4.359,0,1,0,4.359,4.359A4.352,4.352,0,0,0,8.5,6.379Zm0,7.193a2.834,2.834,0,1,1,2.834-2.834A2.839,2.839,0,0,1,8.5,13.572ZM14.053,6.2a1.017,1.017,0,1,1-1.017-1.017A1.014,1.014,0,0,1,14.053,6.2ZM16.94,7.233a5.031,5.031,0,0,0-1.373-3.562A5.064,5.064,0,0,0,12,2.3c-1.4-.08-5.611-.08-7.014,0a5.057,5.057,0,0,0-3.562,1.37A5.048,5.048,0,0,0,.054,7.229c-.08,1.4-.08,5.611,0,7.014a5.031,5.031,0,0,0,1.373,3.562A5.071,5.071,0,0,0,4.99,19.179c1.4.08,5.611.08,7.014,0a5.031,5.031,0,0,0,3.562-1.373,5.064,5.064,0,0,0,1.373-3.562c.08-1.4.08-5.607,0-7.011ZM15.127,15.75a2.869,2.869,0,0,1-1.616,1.616c-1.119.444-3.775.341-5.011.341s-3.9.1-5.011-.341A2.869,2.869,0,0,1,1.872,15.75c-.444-1.119-.341-3.775-.341-5.011s-.1-3.9.341-5.011A2.869,2.869,0,0,1,3.488,4.111c1.119-.444,3.775-.341,5.011-.341s3.9-.1,5.011.341a2.869,2.869,0,0,1,1.616,1.616c.444,1.119.341,3.775.341,5.011S15.57,14.634,15.127,15.75Z" transform="translate(0.005 -2.238)" fill="#fff"/>
</svg>
