<svg xmlns="http://www.w3.org/2000/svg" width="16.593" height="13.485" viewBox="0 0 16.593 13.485">
  <path id="Icon_metro-twitter" data-name="Icon metro-twitter" d="M19.164,6.414a6.806,6.806,0,0,1-1.955.536,3.415,3.415,0,0,0,1.5-1.883,6.815,6.815,0,0,1-2.162.826,3.407,3.407,0,0,0-5.8,3.1A9.665,9.665,0,0,1,3.726,5.44,3.408,3.408,0,0,0,4.779,9.985,3.39,3.39,0,0,1,3.237,9.56c0,.014,0,.028,0,.043A3.406,3.406,0,0,0,5.968,12.94,3.41,3.41,0,0,1,4.43,13a3.408,3.408,0,0,0,3.18,2.364A6.83,6.83,0,0,1,3.383,16.82a6.9,6.9,0,0,1-.812-.048,9.681,9.681,0,0,0,14.9-8.156q0-.221-.01-.44a6.916,6.916,0,0,0,1.7-1.762Z" transform="translate(-2.571 -4.817)" fill="#fff"/>
</svg>
